<?xml version="1.0" encoding="UTF-8"?>
<svg version="1.1" xmlns="http://www.w3.org/2000/svg" width="214" height="135">
<path d="M0 0 C70.62 0 141.24 0 214 0 C214 44.55 214 89.1 214 135 C143.38 135 72.76 135 0 135 C0 90.45 0 45.9 0 0 Z " fill="#FBF9FA" transform="translate(0,0)"/>
<path d="M0 0 C70.62 0 141.24 0 214 0 C214 44.55 214 89.1 214 135 C143.38 135 72.76 135 0 135 C0 90.45 0 45.9 0 0 Z M84 24 C83.10667969 24.4125 82.21335937 24.825 81.29296875 25.25 C66.28023806 32.6408828 56.63496715 44.55196017 50.9453125 60.01953125 C49.62891604 65.56253949 49.43695362 71.31960288 49 77 C34.48 77 19.96 77 5 77 C5 95.81 5 114.62 5 134 C72.32 134 139.64 134 209 134 C209 115.19 209 96.38 209 77 C194.48 77 179.96 77 165 77 C164.67 72.71 164.34 68.42 164 64 C160.64995524 49.47834674 151.81991334 36.93001087 139.234375 28.86914062 C137.3236724 27.72232429 135.39346781 26.63017016 133.4375 25.5625 C132.83671631 25.2322583 132.23593262 24.9020166 131.61694336 24.56176758 C118.0701942 17.57349587 97.47847074 16.87089151 84 24 Z " fill="#FEFEFE" transform="translate(0,0)"/>
<path d="M0 0 C0.82242188 0.6290625 1.64484375 1.258125 2.4921875 1.90625 C3.29398437 2.5146875 4.09578125 3.123125 4.921875 3.75 C14.62569275 11.72216004 21.51930752 23.43688236 23.4921875 35.90625 C23.55677792 37.67602761 23.57829815 39.44795152 23.5546875 41.21875 C23.54566406 42.10175781 23.53664063 42.98476562 23.52734375 43.89453125 C23.51574219 44.55839844 23.50414062 45.22226563 23.4921875 45.90625 C10.25368246 47.11893748 10.25368246 47.11893748 6.16015625 44.30078125 C3.19801959 40.45937288 2.21008268 37.78751824 2.4921875 32.90625 C0.1821875 32.90625 -2.1278125 32.90625 -4.5078125 32.90625 C-4.78625 33.834375 -4.78625 33.834375 -5.0703125 34.78125 C-6.5078125 36.90625 -6.5078125 36.90625 -9.8203125 37.65625 C-14.44770637 39.22485809 -15.33033655 41.07266892 -17.5625 45.2265625 C-18.03042969 46.05800781 -18.03042969 46.05800781 -18.5078125 46.90625 C-18.8378125 46.90625 -19.1678125 46.90625 -19.5078125 46.90625 C-19.8378125 36.67625 -20.1678125 26.44625 -20.5078125 15.90625 C-21.0028125 16.40125 -21.0028125 16.40125 -21.5078125 16.90625 C-23.77556141 17.00648409 -26.04644413 17.03706341 -28.31640625 17.0390625 C-29.3392849 17.04049759 -29.3392849 17.04049759 -30.38282776 17.04196167 C-31.82789197 17.04264339 -33.27295922 17.04078969 -34.71801758 17.03662109 C-36.93252443 17.03128084 -39.14682769 17.03656205 -41.36132812 17.04296875 C-42.76302128 17.04230781 -44.16471431 17.04102631 -45.56640625 17.0390625 C-46.84829834 17.03793457 -48.13019043 17.03680664 -49.45092773 17.03564453 C-52.5078125 16.90625 -52.5078125 16.90625 -54.5078125 15.90625 C-54.0128125 16.89625 -54.0128125 16.89625 -53.5078125 17.90625 C-53.42472612 19.28173156 -53.40045234 20.66110796 -53.41015625 22.0390625 C-53.41337891 22.84472656 -53.41660156 23.65039062 -53.41992188 24.48046875 C-53.43249023 25.74310547 -53.43249023 25.74310547 -53.4453125 27.03125 C-53.44982422 27.88074219 -53.45433594 28.73023438 -53.45898438 29.60546875 C-53.47078376 31.70575909 -53.48871944 33.8060133 -53.5078125 35.90625 C-55.4878125 35.90625 -57.4678125 35.90625 -59.5078125 35.90625 C-59.8378125 34.91625 -60.1678125 33.92625 -60.5078125 32.90625 C-62.8178125 32.90625 -65.1278125 32.90625 -67.5078125 32.90625 C-67.600625 34.453125 -67.600625 34.453125 -67.6953125 36.03125 C-68.4208246 39.49138463 -69.06044052 42.12968323 -71.43359375 44.81640625 C-76.35300964 47.40118409 -83.09275369 46.27406532 -88.5078125 45.90625 C-89.28270127 32.41744545 -84.73873367 19.83887074 -75.734375 9.62109375 C-56.333739 -11.08093958 -24.08359276 -16.8656614 0 0 Z " fill="#FDFDFD" transform="translate(139.5078125,31.09375)"/>
<path d="M0 0 C1.41345703 -0.01160156 1.41345703 -0.01160156 2.85546875 -0.0234375 C11.88928322 0.0015523 19.54676758 1.40191802 27.5 5.75 C28.14066406 6.09820801 28.78132812 6.44641602 29.44140625 6.80517578 C43.1623133 14.57967176 51.79652038 25.63515971 57.1796875 40.26953125 C58.49608396 45.81253949 58.68804638 51.56960288 59.125 57.25 C73.645 57.25 88.165 57.25 103.125 57.25 C103.125 76.06 103.125 94.87 103.125 114.25 C35.805 114.25 -31.515 114.25 -100.875 114.25 C-100.875 95.44 -100.875 76.63 -100.875 57.25 C-86.355 57.25 -71.835 57.25 -56.875 57.25 C-56.545 52.96 -56.215 48.67 -55.875 44.25 C-52.79022656 30.4649187 -44.38825188 18.41086383 -32.875 10.25 C-22.12046613 3.60360183 -12.813876 -0.10431921 0 0 Z M-43.60253906 22.60791016 C-50.20875852 31.13312736 -55.30362782 41.81939845 -55 52.75 C-54.98195312 53.6059375 -54.96390625 54.461875 -54.9453125 55.34375 C-54.92210937 55.9728125 -54.89890625 56.601875 -54.875 57.25 C-45.81488079 58.39139992 -45.81488079 58.39139992 -37.54296875 55.64453125 C-34.58083209 51.80312288 -33.59289518 49.13126824 -33.875 44.25 C-31.895 44.25 -29.915 44.25 -27.875 44.25 C-28.205 45.24 -28.535 46.23 -28.875 47.25 C-30.855 46.755 -30.855 46.755 -32.875 46.25 C-33.555625 47.85875 -33.555625 47.85875 -34.25 49.5 C-35.07201027 51.44293336 -35.87732167 53.25384733 -36.96875 55.0625 C-38.22831548 58.10283047 -38.06549328 60.72533618 -38 64 C-37.98195312 65.17046875 -37.96390625 66.3409375 -37.9453125 67.546875 C-37.92210937 68.43890625 -37.89890625 69.3309375 -37.875 70.25 C-36.87597656 70.23839844 -35.87695312 70.22679688 -34.84765625 70.21484375 C-33.55730469 70.20582031 -32.26695313 70.19679688 -30.9375 70.1875 C-29.64972656 70.17589844 -28.36195312 70.16429688 -27.03515625 70.15234375 C-23.875 70.25 -23.875 70.25 -22.875 71.25 C-28.485 70.92 -34.095 70.59 -39.875 70.25 C-39.875 66.62 -39.875 62.99 -39.875 59.25 C-59.675 59.25 -79.475 59.25 -99.875 59.25 C-99.875 76.74 -99.875 94.23 -99.875 112.25 C-33.215 112.25 33.445 112.25 102.125 112.25 C102.125 94.76 102.125 77.27 102.125 59.25 C82.325 59.25 62.525 59.25 42.125 59.25 C42.125 62.55 42.125 65.85 42.125 69.25 C51.695 69.25 61.265 69.25 71.125 69.25 C71.125 69.91 71.125 70.57 71.125 71.25 C55.945 71.25 40.765 71.25 25.125 71.25 C25.125 67.29 25.125 63.33 25.125 59.25 C22.155 59.25 19.185 59.25 16.125 59.25 C16.125 62.55 16.125 65.85 16.125 69.25 C16.455 69.25 16.785 69.25 17.125 69.25 C17.125 66.61 17.125 63.97 17.125 61.25 C17.785 61.25 18.445 61.25 19.125 61.25 C19.125 64.22 19.125 67.19 19.125 70.25 C20.775 70.58 22.425 70.91 24.125 71.25 C16.865 71.25 9.605 71.25 2.125 71.25 C2.125 66.63 2.125 62.01 2.125 57.25 C0.805 57.25 -0.515 57.25 -1.875 57.25 C-1.875 61.87 -1.875 66.49 -1.875 71.25 C-8.475 71.25 -15.075 71.25 -21.875 71.25 C-16.97431037 69.61643679 -12.01761524 70.19470306 -6.875 70.25 C-6.875 64.31 -6.875 58.37 -6.875 52.25 C-7.535 52.25 -8.195 52.25 -8.875 52.25 C-9.37 53.24 -9.37 53.24 -9.875 54.25 C-10.205 53.26 -10.535 52.27 -10.875 51.25 C-8.895 51.25 -6.915 51.25 -4.875 51.25 C-4.875 53.23 -4.875 55.21 -4.875 57.25 C-3.76125 57.064375 -2.6475 56.87875 -1.5 56.6875 C2.125 56.25 2.125 56.25 4.125 57.25 C5.45833333 54.25 5.45833333 54.25 4.125 51.25 C6.105 51.25 8.085 51.25 10.125 51.25 C10.125 57.19 10.125 63.13 10.125 69.25 C11.115 69.25 12.105 69.25 13.125 69.25 C13.125 56.05 13.125 42.85 13.125 29.25 C1.905 29.25 -9.315 29.25 -20.875 29.25 C-20.875 28.59 -20.875 27.93 -20.875 27.25 C-20.215 27.58 -19.555 27.91 -18.875 28.25 C-16.56284489 28.34787095 -14.24781842 28.38077623 -11.93359375 28.3828125 C-11.25071793 28.38376923 -10.5678421 28.38472595 -9.86427307 28.38571167 C-8.42098905 28.38639223 -6.97770197 28.3845466 -5.53442383 28.38037109 C-3.31780172 28.37501282 -1.10138148 28.38032443 1.11523438 28.38671875 C2.51562545 28.38605811 3.9160164 28.38477723 5.31640625 28.3828125 C7.23755249 28.38112061 7.23755249 28.38112061 9.19750977 28.37939453 C12.01512748 28.58493704 12.01512748 28.58493704 13.125 27.25 C13.455 37.48 13.785 47.71 14.125 58.25 C16.52172198 57.30658574 16.52172198 57.30658574 17.75 53.875 C19.47306115 50.66473397 20.86572582 49.64686941 24.3125 48.5 C25.00730469 48.31953125 25.70210938 48.1390625 26.41796875 47.953125 C26.98128906 47.72109375 27.54460937 47.4890625 28.125 47.25 C28.455 46.26 28.785 45.27 29.125 44.25 C31.435 44.25 33.745 44.25 36.125 44.25 C36.08246094 44.98605469 36.03992188 45.72210938 35.99609375 46.48046875 C36.1797087 50.42540823 37.41074527 52.55517574 39.79296875 55.64453125 C44.68507769 59.01246555 51.4446839 57.7703343 57.125 57.25 C57.93840124 43.36192705 53.33250713 32.24932712 45.125 21.25 C42.05407811 17.82324112 38.82150257 14.98219755 35.125 12.25 C34.35671875 11.67765625 33.5884375 11.1053125 32.796875 10.515625 C8.28003437 -5.88305648 -24.98498428 0.9797099 -43.60253906 22.60791016 Z " fill="#D8CFD4" transform="translate(105.875,19.75)"/>
<path d="M0 0 C0.33 0 0.66 0 1 0 C1.33 11.55 1.66 23.1 2 35 C3.32 32.69 4.64 30.38 6 28 C8 26 8 26 11.5625 25 C12.696875 24.67 13.83125 24.34 15 24 C15.33 23.34 15.66 22.68 16 22 C18.31 22 20.62 22 23 22 C24.27253436 25.64793184 25.32829194 29.1936543 26 33 C22 28.5 22 28.5 22 24 C21.01 24 20.02 24 19 24 C18.9175 24.86625 18.835 25.7325 18.75 26.625 C18 30 18 30 16 32.625 C13.03116018 37.07495741 13.03116018 37.07495741 13 48 C27.85 48 42.7 48 58 48 C58 48.33 58 48.66 58 49 C42.82 49 27.64 49 12 49 C12 45.04 12 41.08 12 37 C9.03 37 6.06 37 3 37 C3.33 37.66 3.66 38.32 4 39 C4.66 39 5.32 39 6 39 C6 41.97 6 44.94 6 48 C6.66 48 7.32 48 8 48 C8 45.03 8 42.06 8 39 C8.99 39 9.98 39 11 39 C11 42.3 11 45.6 11 49 C3.74 49 -3.52 49 -11 49 C-11 44.38 -11 39.76 -11 35 C-12.32 35 -13.64 35 -15 35 C-15 39.62 -15 44.24 -15 49 C-21.6 49 -28.2 49 -35 49 C-35 45.7 -35 42.4 -35 39 C-34.01 39 -33.02 39 -32 39 C-32 41.97 -32 44.94 -32 48 C-29.36 48 -26.72 48 -24 48 C-24 44.04 -24 40.08 -24 36 C-23.67 36 -23.34 36 -23 36 C-23 39.96 -23 43.92 -23 48 C-22.01 48 -21.02 48 -20 48 C-20.14139481 45.74971671 -20.28828003 43.49977794 -20.4375 41.25 C-20.51871094 39.99703125 -20.59992188 38.7440625 -20.68359375 37.453125 C-20.92515522 34.81682447 -21.24283934 32.51962706 -22 30 C-22.33 31.32 -22.66 32.64 -23 34 C-23.33 32.35 -23.66 30.7 -24 29 C-22.02 29 -20.04 29 -18 29 C-17.67 30.65 -17.34 32.3 -17 34 C-16.67 33.67 -16.34 33.34 -16 33 C-14.33388095 32.957279 -12.66617115 32.95936168 -11 33 C-10.34 33 -9.68 33 -9 33 C-9 31.68 -9 30.36 -9 29 C-7.02 29 -5.04 29 -3 29 C-2.98018066 28.40461426 -2.96036133 27.80922852 -2.93994141 27.19580078 C-2.84483874 24.50507847 -2.73510158 21.81514852 -2.625 19.125 C-2.5940625 18.18785156 -2.563125 17.25070313 -2.53125 16.28515625 C-2.49257812 15.38925781 -2.45390625 14.49335937 -2.4140625 13.5703125 C-2.3826416 12.74289551 -2.3512207 11.91547852 -2.31884766 11.06298828 C-2 9 -2 9 0 7 C-11.22 7 -22.44 7 -34 7 C-34 6.34 -34 5.68 -34 5 C-23.11 5 -12.22 5 -1 5 C-0.67 3.35 -0.34 1.7 0 0 Z " fill="#BFAFB8" transform="translate(119,42)"/>
<path d="M0 0 C0.99 0 1.98 0 3 0 C3 2.31 3 4.62 3 7 C4.98 7 6.96 7 9 7 C9 4.69 9 2.38 9 0 C11.31 0 13.62 0 16 0 C16 2.31 16 4.62 16 7 C17.98 7 19.96 7 22 7 C22 4.69 22 2.38 22 0 C23.98 0 25.96 0 28 0 C28 12.87 28 25.74 28 39 C27.67 39 27.34 39 27 39 C27 33.06 27 27.12 27 21 C25.02 21 23.04 21 21 21 C21.20625 21.61875 21.4125 22.2375 21.625 22.875 C21.74875 23.57625 21.8725 24.2775 22 25 C21.34 25.66 20.68 26.32 20 27 C19.67 26.67 19.34 26.34 19 26 C15.36805359 25.80850919 15.36805359 25.80850919 12 27 C12 25.02 12 23.04 12 21 C10.02 21 8.04 21 6 21 C6.33 21.99 6.66 22.98 7 24 C7.33 23.34 7.66 22.68 8 22 C8.66 22.33 9.32 22.66 10 23 C10 28.61 10 34.22 10 40 C8.35 40 6.7 40 5 40 C4.97421875 39.21496094 4.9484375 38.42992187 4.921875 37.62109375 C4.83679688 36.04521484 4.83679688 36.04521484 4.75 34.4375 C4.70359375 33.40496094 4.6571875 32.37242188 4.609375 31.30859375 C4.1843391 27.85032554 4.1843391 27.85032554 1.96875 24.78125 C-0.90773359 20.1182711 -0.4390961 15.38264604 -0.25 10.0625 C-0.23195313 9.09248047 -0.21390625 8.12246094 -0.1953125 7.12304688 C-0.14850667 4.74765106 -0.08296385 2.37436156 0 0 Z " fill="#FBFAFB" transform="translate(89,50)"/>
<path d="M0 0 C1.41345703 -0.01160156 1.41345703 -0.01160156 2.85546875 -0.0234375 C11.88928322 0.0015523 19.54676758 1.40191802 27.5 5.75 C28.14066406 6.09820801 28.78132812 6.44641602 29.44140625 6.80517578 C43.08786699 14.53748924 52.23199096 25.75774353 57.19140625 40.5546875 C58.67341515 46.42071438 59.0238719 52.20070112 59.125 58.25 C58.795 58.25 58.465 58.25 58.125 58.25 C57.95484375 57.21101563 57.7846875 56.17203125 57.609375 55.1015625 C54.7091481 38.08853308 49.15775611 23.98992659 34.91015625 13.15234375 C20.56478325 3.35403148 4.13403746 1.0861205 -12.8203125 3.90625 C-26.5289567 7.40120105 -38.81601959 15.71558098 -46.20703125 27.9453125 C-50.74532558 35.98235341 -53.7222597 43.41711645 -54.5 52.75 C-54.57476562 53.6059375 -54.64953125 54.461875 -54.7265625 55.34375 C-54.77554688 55.9728125 -54.82453125 56.601875 -54.875 57.25 C-45.91134273 57.67520057 -45.91134273 57.67520057 -37.80078125 54.80078125 C-35.47565367 51.58191094 -34.23667159 48.22838746 -33.875 44.25 C-31.895 44.25 -29.915 44.25 -27.875 44.25 C-28.205 45.9 -28.535 47.55 -28.875 49.25 C-29.205 48.26 -29.535 47.27 -29.875 46.25 C-30.865 46.25 -31.855 46.25 -32.875 46.25 C-32.978125 47.136875 -33.08125 48.02375 -33.1875 48.9375 C-33.875 52.25 -33.875 52.25 -35.375 54.53125 C-37.19654289 57.83279649 -37.37320978 60.31455356 -37.5625 64.0625 C-37.665625 66.104375 -37.76875 68.14625 -37.875 70.25 C-33.255 70.25 -28.635 70.25 -23.875 70.25 C-23.875 66.29 -23.875 62.33 -23.875 58.25 C-23.545 58.25 -23.215 58.25 -22.875 58.25 C-22.875 62.54 -22.875 66.83 -22.875 71.25 C-38.055 71.25 -53.235 71.25 -68.875 71.25 C-68.875 70.92 -68.875 70.59 -68.875 70.25 C-59.305 70.25 -49.735 70.25 -39.875 70.25 C-39.875 66.62 -39.875 62.99 -39.875 59.25 C-59.675 59.25 -79.475 59.25 -99.875 59.25 C-99.875 77.07 -99.875 94.89 -99.875 113.25 C-100.205 113.25 -100.535 113.25 -100.875 113.25 C-100.875 94.77 -100.875 76.29 -100.875 57.25 C-86.355 57.25 -71.835 57.25 -56.875 57.25 C-56.545 52.96 -56.215 48.67 -55.875 44.25 C-52.79022656 30.4649187 -44.38825188 18.41086383 -32.875 10.25 C-22.12046613 3.60360183 -12.813876 -0.10431921 0 0 Z " fill="#C4B5BE" transform="translate(105.875,19.75)"/>
<path d="M0 0 C0.639375 0.70125 1.27875 1.4025 1.9375 2.125 C5.49799687 5.71636823 9.74812946 8.30436965 14 11 C14 9.35 14 7.7 14 6 C15.32 6 16.64 6 18 6 C18.04898438 6.62648438 18.09796875 7.25296875 18.1484375 7.8984375 C18.22320312 8.71570312 18.29796875 9.53296875 18.375 10.375 C18.47941406 11.59316406 18.47941406 11.59316406 18.5859375 12.8359375 C18.82892588 15.20334191 18.82892588 15.20334191 21 17 C21.22705078 19.06298828 21.22705078 19.06298828 21.1953125 21.5703125 C21.18886719 22.46621094 21.18242187 23.36210938 21.17578125 24.28515625 C21.15902344 25.22230469 21.14226562 26.15945312 21.125 27.125 C21.11597656 28.06988281 21.10695312 29.01476562 21.09765625 29.98828125 C21.07404522 32.32577292 21.04111516 34.66276123 21 37 C22.65 37 24.3 37 26 37 C26 37.33 26 37.66 26 38 C24.948125 38.165 23.89625 38.33 22.8125 38.5 C19.2356458 39.47220784 18.01674691 40.98503299 16.125 44.125 C15.73570313 44.84945312 15.34640625 45.57390625 14.9453125 46.3203125 C14.63335937 46.87460938 14.32140625 47.42890625 14 48 C13.67 48 13.34 48 13 48 C12.67 37.77 12.34 27.54 12 17 C11.67 17.33 11.34 17.66 11 18 C8.70848583 18.08790975 6.41427476 18.10694038 4.12109375 18.09765625 C3.09110008 18.09553383 3.09110008 18.09553383 2.04029846 18.09336853 C-0.16067801 18.08775479 -2.36155409 18.07520007 -4.5625 18.0625 C-6.05143083 18.05748676 -7.54036324 18.05292355 -9.02929688 18.04882812 C-12.68623075 18.03778093 -16.34310558 18.02050713 -20 18 C-18.08480273 13.60515072 -15.00583133 11.60829804 -11.125 9 C-7.0780805 6.2464259 -3.33939083 3.62466542 0 0 Z " fill="#D2C7CE" transform="translate(107,30)"/>
<path d="M0 0 C4.04967033 0.63942163 5.69346902 1.69346902 8.5625 4.5625 C9.9524408 7.3423816 9.74738204 9.4811326 9.5625 12.5625 C8.71236429 15.11290714 8.03102322 16.21544576 5.875 17.8125 C2.58598006 18.87920917 -0.00287906 18.9304951 -3.4375 18.5625 C-5.875 17.125 -5.875 17.125 -7.4375 14.5625 C-8.25937546 10.0210026 -7.97810929 6.6220942 -5.875 2.5 C-3.4375 0.5625 -3.4375 0.5625 0 0 Z " fill="#F8F1F3" transform="translate(142.4375,95.4375)"/>
<path d="M0 0 C1.98 0 3.96 0 6 0 C6.33 1.65 6.66 3.3 7 5 C7.33 4.67 7.66 4.34 8 4 C9.66611905 3.957279 11.33382885 3.95936168 13 4 C13.66 4 14.32 4 15 4 C15 2.68 15 1.36 15 0 C17.475 0.495 17.475 0.495 20 1 C19.67 1.66 19.34 2.32 19 3 C18.34 3 17.68 3 17 3 C17 3.66 17 4.32 17 5 C17.99 5 18.98 5 20 5 C20 9.62 20 14.24 20 19 C19.01 19 18.02 19 17 19 C17.33 16.36 17.66 13.72 18 11 C17.34 11 16.68 11 16 11 C16 13.97 16 16.94 16 20 C15.01 20 14.02 20 13 20 C13 15.38 13 10.76 13 6 C11.68 6 10.36 6 9 6 C9 10.62 9 15.24 9 20 C2.4 20 -4.2 20 -11 20 C-11 16.7 -11 13.4 -11 10 C-10.01 10 -9.02 10 -8 10 C-8 12.97 -8 15.94 -8 19 C-5.36 19 -2.72 19 0 19 C0 15.04 0 11.08 0 7 C0.33 7 0.66 7 1 7 C1 10.96 1 14.92 1 19 C1.99 19 2.98 19 4 19 C3.85860519 16.74971671 3.71171997 14.49977794 3.5625 12.25 C3.48128906 10.99703125 3.40007812 9.7440625 3.31640625 8.453125 C3.07484478 5.81682447 2.75716066 3.51962706 2 1 C1.67 2.32 1.34 3.64 1 5 C0.67 3.35 0.34 1.7 0 0 Z " fill="#CEC2C9" transform="translate(95,71)"/>
<path d="M0 0 C0.99 0 1.98 0 3 0 C3.71614583 1.69270833 4.43229167 3.38541667 5.1484375 5.078125 C5.96599281 7.02534468 5.96599281 7.02534468 7.09375 8.84375 C8.93733737 13.23021651 8.10132881 18.33887492 8 23 C3.71 23 -0.58 23 -5 23 C-5.35692045 15.05851988 -5.49285997 10.53506905 -1 4 C-0.23959428 1.73014106 -0.23959428 1.73014106 0 0 Z " fill="#FAF9FA" transform="translate(73,66)"/>
<path d="M0 0 C0.99 0 1.98 0 3 0 C3.71614583 1.69270833 4.43229167 3.38541667 5.1484375 5.078125 C5.96599281 7.02534468 5.96599281 7.02534468 7.09375 8.84375 C8.93733737 13.23021651 8.10132881 18.33887492 8 23 C3.71 23 -0.58 23 -5 23 C-5.35692045 15.05851988 -5.49285997 10.53506905 -1 4 C-0.23959428 1.73014106 -0.23959428 1.73014106 0 0 Z " fill="#FBFAFA" transform="translate(138,66)"/>
<path d="M0 0 C3.91693034 1.30564345 5.36397299 3.78337887 7.6875 7 C8.10322266 7.55945312 8.51894531 8.11890625 8.94726562 8.6953125 C12 12.8458282 12 12.8458282 12 14 C2.1 14 -7.8 14 -18 14 C-14.44318002 10.44318002 -10.98226926 7.60662215 -6.9375 4.6875 C-6.31294922 4.22021484 -5.68839844 3.75292969 -5.04492188 3.27148438 C-3.42033129 2.09768733 -1.71385064 1.03913909 0 0 Z " fill="#FBFAFB" transform="translate(106,34)"/>
<path d="M0 0 C1.5675 -0.061875 3.135 -0.12375 4.75 -0.1875 C6.07257813 -0.23970703 6.07257813 -0.23970703 7.421875 -0.29296875 C10.49021392 0.05570613 11.79575743 0.87159147 14 3 C14.5 5.5 14.5 5.5 14 8 C12.4375 9.8125 12.4375 9.8125 10 11 C6.25 11.1875 6.25 11.1875 3 11 C3 13.31 3 15.62 3 18 C2.01 18 1.02 18 0 18 C0 12.06 0 6.12 0 0 Z " fill="#B77783" transform="translate(77,96)"/>
<path d="M0 0 C0.99 0 1.98 0 3 0 C3 2.31 3 4.62 3 7 C5.97 7 8.94 7 12 7 C12 4.69 12 2.38 12 0 C12.99 0 13.98 0 15 0 C15 5.94 15 11.88 15 18 C13.68 18 12.36 18 11 18 C11 15.69 11 13.38 11 11 C8.69 11 6.38 11 4 11 C4 13.31 4 15.62 4 18 C2.68 18 1.36 18 0 18 C0 12.06 0 6.12 0 0 Z " fill="#D9B7BE" transform="translate(117,96)"/>
<path d="M0 0 C1.32 0 2.64 0 4 0 C4 5.94 4 11.88 4 18 C3.01 18 2.02 18 1 18 C0.67 15.36 0.34 12.72 0 10 C-1.32 12.31 -2.64 14.62 -4 17 C-4.66 17 -5.32 17 -6 17 C-7.32 13.7 -8.64 10.4 -10 7 C-10.33 10.3 -10.66 13.6 -11 17 C-11.66 17 -12.32 17 -13 17 C-13 11.72 -13 6.44 -13 1 C-11.68 1 -10.36 1 -9 1 C-7.68 4.3 -6.36 7.6 -5 11 C-4.360625 9.55625 -3.72125 8.1125 -3.0625 6.625 C-2.07503996 4.39525153 -1.09058 2.18116 0 0 Z " fill="#C08792" transform="translate(168,96)"/>
<path d="M0 0 C4.62 0 9.24 0 14 0 C14 0.99 14 1.98 14 3 C10.37 3 6.74 3 3 3 C3 4.65 3 6.3 3 8 C6.3 8 9.6 8 13 8 C13 8.66 13 9.32 13 10 C10.03 10 7.06 10 4 10 C4 11.65 4 13.3 4 15 C7.3 15 10.6 15 14 15 C14 15.99 14 16.98 14 18 C9.38 18 4.76 18 0 18 C0 12.06 0 6.12 0 0 Z " fill="#CDA0A9" transform="translate(175,96)"/>
<path d="M0 0 C1.588125 -0.061875 3.17625 -0.12375 4.8125 -0.1875 C6.15248047 -0.23970703 6.15248047 -0.23970703 7.51953125 -0.29296875 C10 0 10 0 11.796875 1.35546875 C13 3 13 3 13.4375 5.5 C13 8 13 8 11.4375 9.8125 C8.19571384 11.39183172 5.55711122 11.20521796 2 11 C2 12.98 2 14.96 2 17 C1.34 17 0.68 17 0 17 C0 11.39 0 5.78 0 0 Z " fill="#A85A69" transform="translate(61,96)"/>
<path d="M0 0 C1.86328125 0.20703125 1.86328125 0.20703125 4 1 C6.84657231 5.79850761 8.41838323 11.47464064 9 17 C8.01 17 7.02 17 6 17 C6 15.68 6 14.36 6 13 C3.03 13 0.06 13 -3 13 C-3.66 14.65 -4.32 16.3 -5 18 C-5.66 18 -6.32 18 -7 18 C-6.22177814 14.10889069 -4.59458539 10.60840451 -3 7 C-2.43596026 5.68816096 -1.87339545 4.3756865 -1.3125 3.0625 C-0.6628125 1.5465625 -0.6628125 1.5465625 0 0 Z " fill="#AB5F6E" transform="translate(49,96)"/>
<path d="M0 0 C7.92284316 -0.67241842 14.99985033 4.6960389 21.046875 9.33984375 C33.29768032 20.0508379 40.60201701 32.45886088 41.8125 48.875 C41.89548314 50.91593675 41.96585758 52.95766229 42 55 C41.67 55 41.34 55 41 55 C40.82984375 53.96101563 40.6596875 52.92203125 40.484375 51.8515625 C37.58145852 34.82275577 32.02067622 20.79918511 17.8125 9.90625 C12.20614886 6.10638978 6.27843762 3.47366005 0 1 C0 0.67 0 0.34 0 0 Z " fill="#BDADB7" transform="translate(123,23)"/>
<path d="M0 0 C4.04967033 0.63942163 5.69346902 1.69346902 8.5625 4.5625 C9.9524408 7.3423816 9.74738204 9.4811326 9.5625 12.5625 C8.71236429 15.11290714 8.03102322 16.21544576 5.875 17.8125 C2.58598006 18.87920917 -0.00287906 18.9304951 -3.4375 18.5625 C-5.875 17.125 -5.875 17.125 -7.4375 14.5625 C-8.25937546 10.0210026 -7.97810929 6.6220942 -5.875 2.5 C-3.4375 0.5625 -3.4375 0.5625 0 0 Z M-5.4375 5.5625 C-5.770057 9.1541156 -5.83616425 11.69872746 -4.3125 15 C-2.45185236 16.82727634 -2.45185236 16.82727634 0.5625 17 C3.46711648 16.74917431 3.46711648 16.74917431 5.4375 15.5625 C7.31571874 12.22344446 6.86329454 9.35251126 6.5625 5.5625 C4.8060669 3.40544485 4.8060669 3.40544485 2.6875 3.296875 C1.98625 3.30203125 1.285 3.3071875 0.5625 3.3125 C-0.13875 3.30734375 -0.84 3.3021875 -1.5625 3.296875 C-3.6810669 3.40544485 -3.6810669 3.40544485 -5.4375 5.5625 Z " fill="#B67380" transform="translate(142.4375,95.4375)"/>
<path d="M0 0 C0.33 0 0.66 0 1 0 C1 9.24 1 18.48 1 28 C1.66 28 2.32 28 3 28 C3 24.04 3 20.08 3 16 C3.66 16 4.32 16 5 16 C5 12.04 5 8.08 5 4 C5.33 4 5.66 4 6 4 C6.1465954 7.66623812 6.23449874 11.331712 6.3125 15 C6.35439453 16.02996094 6.39628906 17.05992188 6.43945312 18.12109375 C6.54874477 24.98460917 5.65817084 29.75895566 1 35 C0.67 35 0.34 35 0 35 C0 23.45 0 11.9 0 0 Z " fill="#F0EDEF" transform="translate(120,43)"/>
<path d="M0 0 C0.9295752 -0.00128906 1.85915039 -0.00257812 2.81689453 -0.00390625 C8.76629877 0.0889378 14.11070219 0.90150874 19.875 2.375 C15.93154023 5.00397318 14.48398772 4.13467235 9.875 3.375 C-0.75933589 2.69031367 -10.93996903 2.95966027 -21.125 6.375 C-21.455 5.715 -21.785 5.055 -22.125 4.375 C-14.92719204 0.51780148 -8.0001328 -0.01069358 0 0 Z " fill="#C8BBC3" transform="translate(106.125,19.625)"/>
<path d="M0 0 C1.32 0 2.64 0 4 0 C4 6.27 4 12.54 4 19 C6.97 18.67 9.94 18.34 13 18 C13.66 18.33 14.32 18.66 15 19 C15 16.03 15 13.06 15 10 C15.99 10 16.98 10 18 10 C18 13.3 18 16.6 18 20 C11.73 20 5.46 20 -1 20 C-1 17.03 -1 14.06 -1 11 C-0.34 11 0.32 11 1 11 C1.125 16.75 1.125 16.75 0 19 C0.99 19 1.98 19 3 19 C3 14.38 3 9.76 3 5 C2.01 5 1.02 5 0 5 C0 4.34 0 3.68 0 3 C0.66 2.67 1.32 2.34 2 2 C1.34 1.34 0.68 0.68 0 0 Z " fill="#B8A7B1" transform="translate(112,71)"/>
<path d="M0 0 C3 3 6 6 9 9 C8.01 9.495 8.01 9.495 7 10 C8.65 11.98 10.3 13.96 12 16 C11.01 16 10.02 16 9 16 C6.95703125 13.59375 6.95703125 13.59375 4.8125 10.5 C4.09707031 9.4790625 3.38164063 8.458125 2.64453125 7.40625 C2.10183594 6.6121875 1.55914062 5.818125 1 5 C-3.96342307 6.59986064 -7.70198762 9.52539832 -11.8125 12.625 C-12.50537109 13.140625 -13.19824219 13.65625 -13.91210938 14.1875 C-15.61173663 15.45342926 -17.30637435 16.72605265 -19 18 C-19 17.01 -19 16.02 -19 15 C-16.83984375 13.1328125 -16.83984375 13.1328125 -13.9375 11.125 C-12.93847656 10.42375 -11.93945312 9.7225 -10.91015625 9 C-9.94980469 8.34 -8.98945312 7.68 -8 7 C-3.33719829 4.11694524 -3.33719829 4.11694524 0 0 Z " fill="#CBBEC6" transform="translate(107,30)"/>
<path d="M0 0 C0.99 0 1.98 0 3 0 C4.32 2.31 5.64 4.62 7 7 C9.77000825 3.67913229 9.77000825 3.67913229 12 0 C12.99 0 13.98 0 15 0 C14.05916753 2.60538222 13.29612862 4.66833595 11.4375 6.75 C9.21809807 10.2238465 9.25084684 13.95185104 9 18 C8.01 18 7.02 18 6 18 C5.98582031 17.43152344 5.97164063 16.86304687 5.95703125 16.27734375 C5.56772256 9.97475164 3.90802868 6.91008731 0 2 C0 1.34 0 0.68 0 0 Z " fill="#B97985" transform="translate(93,96)"/>
<path d="M0 0 C0.66 0 1.32 0 2 0 C2 2.31 2 4.62 2 7 C5.3 7 8.6 7 12 7 C12 4.69 12 2.38 12 0 C12.66 0 13.32 0 14 0 C14 5.28 14 10.56 14 16 C13.34 16 12.68 16 12 16 C12 13.36 12 10.72 12 8 C8.7 8 5.4 8 2 8 C2 10.64 2 13.28 2 16 C1.34 16 0.68 16 0 16 C0 10.72 0 5.44 0 0 Z " fill="#A65564" transform="translate(26,97)"/>
<path d="M0 0 C2.97 0 5.94 0 9 0 C9 3.3 9 6.6 9 10 C7.35 10 5.7 10 4 10 C2.02 10.99 2.02 10.99 0 12 C0 8.04 0 4.08 0 0 Z " fill="#E8E3E6" transform="translate(83,79)"/>
<path d="M0 0 C0.33 0 0.66 0 1 0 C1 2.31 1 4.62 1 7 C4.3 7 7.6 7 11 7 C11 4.69 11 2.38 11 0 C11.66 0 12.32 0 13 0 C13 5.28 13 10.56 13 16 C12.34 16 11.68 16 11 16 C11 13.69 11 11.38 11 9 C7.7 9 4.4 9 1 9 C1 11.31 1 13.62 1 16 C0.67 16 0.34 16 0 16 C0 10.72 0 5.44 0 0 Z " fill="#A85A68" transform="translate(118,97)"/>
<path d="M0 0 C-1.19899698 3.0831351 -2.47700477 6.06279492 -4 9 C-6.64 9 -9.28 9 -12 9 C-10.125 3.25 -10.125 3.25 -9 1 C-5.98003217 0.45091494 -3.07380605 0 0 0 Z " fill="#FCFBFB" transform="translate(136,68)"/>
<path d="M0 0 C5.24605829 0.17486861 5.24605829 0.17486861 8 1 C12 5.7 12 5.7 12 9 C9.36 9 6.72 9 4 9 C0 2.25 0 2.25 0 0 Z " fill="#FCFCFC" transform="translate(78,68)"/>
<path d="M0 0 C2.97 0 5.94 0 9 0 C9 3.96 9 7.92 9 12 C6.03 11.505 6.03 11.505 3 11 C3 8.03 3 5.06 3 2 C2.34 2 1.68 2 1 2 C1 4.64 1 7.28 1 10 C0.67 10 0.34 10 0 10 C0 6.7 0 3.4 0 0 Z " fill="#EBE6EA" transform="translate(122,79)"/>
<path d="M0 0 C0.66 0 1.32 0 2 0 C2.02505615 0.58491211 2.0501123 1.16982422 2.07592773 1.77246094 C2.19222962 4.43184471 2.31480067 7.09090403 2.4375 9.75 C2.47681641 10.67039062 2.51613281 11.59078125 2.55664062 12.5390625 C2.59853516 13.42851563 2.64042969 14.31796875 2.68359375 15.234375 C2.72025146 16.05131836 2.75690918 16.86826172 2.79467773 17.70996094 C2.99134275 19.9034423 3.40300594 21.88396413 4 24 C3.34 24 2.68 24 2 24 C1.34 23.01 0.68 22.02 0 21 C-2.05003955 19.80767387 -2.05003955 19.80767387 -4 19 C-2.68 19 -1.36 19 0 19 C0 12.73 0 6.46 0 0 Z " fill="#CFC3CA" transform="translate(86,49)"/>
<path d="M0 0 C0.66 0.33 1.32 0.66 2 1 C2 6.61 2 12.22 2 18 C1.01 18 0.02 18 -1 18 C-1.22119939 15.37549914 -1.42746669 12.75129514 -1.625 10.125 C-1.68945312 9.37863281 -1.75390625 8.63226563 -1.8203125 7.86328125 C-1.96087365 5.9129953 -1.98759849 3.95530533 -2 2 C-1.34 1.34 -0.68 0.68 0 0 Z " fill="#E0D9DD" transform="translate(97,72)"/>
<path d="M0 0 C3.96 0 7.92 0 12 0 C12 0.33 12 0.66 12 1 C8.7 1 5.4 1 2 1 C2 2.98 2 4.96 2 7 C5.3 7 8.6 7 12 7 C12 7.33 12 7.66 12 8 C8.7 8 5.4 8 2 8 C2 9.98 2 11.96 2 14 C1.34 14 0.68 14 0 14 C0 9.38 0 4.76 0 0 Z " fill="#AA5D6C" transform="translate(176,97)"/>
<path d="M0 0 C2.64 0 5.28 0 8 0 C8.042721 1.66611905 8.04063832 3.33382885 8 5 C7 6 7 6 3.4375 6.0625 C2.303125 6.041875 1.16875 6.02125 0 6 C0 4.02 0 2.04 0 0 Z " fill="#FAF6F7" transform="translate(63,99)"/>
<path d="M0 0 C0 3.96 0 7.92 0 12 C-2.31 12 -4.62 12 -7 12 C-6.34 11.67 -5.68 11.34 -5 11 C-5 8.36 -5 5.72 -5 3 C-4.67 3 -4.34 3 -4 3 C-4 5.64 -4 8.28 -4 11 C-3.34 11 -2.68 11 -2 11 C-2 7.7 -2 4.4 -2 1 C-4.97 1 -7.94 1 -11 1 C-11 0.67 -11 0.34 -11 0 C-9.54263913 -0.19491452 -8.08405407 -0.38069358 -6.625 -0.5625 C-5.81289062 -0.66691406 -5.00078125 -0.77132812 -4.1640625 -0.87890625 C-2 -1 -2 -1 0 0 Z " fill="#CEC2C9" transform="translate(94,78)"/>
<path d="M0 0 C1.32 0 2.64 0 4 0 C4.33 1.65 4.66 3.3 5 5 C4.01 5.495 4.01 5.495 3 6 C2.53248212 8.35599235 2.53248212 8.35599235 2.375 11.0625 C2.30023438 11.98160156 2.22546875 12.90070313 2.1484375 13.84765625 C2.09945312 14.55792969 2.05046875 15.26820312 2 16 C1.34 16 0.68 16 0 16 C0 10.72 0 5.44 0 0 Z " fill="#BD808C" transform="translate(155,97)"/>
<path d="M0 0 C2.31 0 4.62 0 7 0 C7.38218767 1.65614657 7.71395102 3.32457024 8 5 C7 6 7 6 3.4375 6.0625 C2.303125 6.041875 1.16875 6.02125 0 6 C0 4.02 0 2.04 0 0 Z " fill="#FAF7F7" transform="translate(80,99)"/>
<path d="M0 0 C0.66 0 1.32 0 2 0 C1.97679687 0.61488281 1.95359375 1.22976562 1.9296875 1.86328125 C1.91164062 2.67152344 1.89359375 3.47976562 1.875 4.3125 C1.84019531 5.51326172 1.84019531 5.51326172 1.8046875 6.73828125 C1.84182678 9.28388576 1.84182678 9.28388576 4 12 C7.06556598 12.73343428 7.06556598 12.73343428 10 13 C10 13.66 10 14.32 10 15 C3.80769231 15.47633136 3.80769231 15.47633136 0.5625 13.5625 C-1.71978996 9.81954446 -1.50455052 6.28454373 -1 2 C-0.67 1.34 -0.34 0.68 0 0 Z " fill="#B4707D" transform="translate(136,99)"/>
<path d="M0 0 C1.32 0 2.64 0 4 0 C4.16873478 1.43725871 4.33490737 2.87481838 4.5 4.3125 C4.5928125 5.11300781 4.685625 5.91351563 4.78125 6.73828125 C5.12491845 10.29156758 4.86758276 13.64951594 4.5 17.1875 C4.4071875 18.08855469 4.314375 18.98960938 4.21875 19.91796875 C4.1465625 20.60503906 4.074375 21.29210937 4 22 C3.67 22 3.34 22 3 22 C3 16.72 3 11.44 3 6 C2.01 5.67 1.02 5.34 0 5 C0 3.35 0 1.7 0 0 Z " fill="#CABEC5" transform="translate(121,36)"/>
<path d="M0 0 C2.5 0.125 2.5 0.125 3.5 1.125 C3.57313567 3.65549402 3.59247527 6.15804837 3.5625 8.6875 C3.55798828 9.39841797 3.55347656 10.10933594 3.54882812 10.84179688 C3.53700864 12.60290013 3.51907263 14.36396036 3.5 16.125 C3.17 16.125 2.84 16.125 2.5 16.125 C2.5 11.505 2.5 6.885 2.5 2.125 C1.18 2.455 -0.14 2.785 -1.5 3.125 C-1.83 7.085 -2.16 11.045 -2.5 15.125 C-2.83 15.125 -3.16 15.125 -3.5 15.125 C-3.52685412 12.81256208 -3.54632841 10.5000373 -3.5625 8.1875 C-3.57410156 6.89972656 -3.58570312 5.61195312 -3.59765625 4.28515625 C-3.47059734 0.17352987 -3.47059734 0.17352987 0 0 Z " fill="#C9BCC4" transform="translate(105.5,74.875)"/>
<path d="M0 0 C3 3 6 6 9 9 C8.01 9.495 8.01 9.495 7 10 C8.65 11.98 10.3 13.96 12 16 C11.01 16 10.02 16 9 16 C7.28537353 14.1165761 5.80467063 12.29667742 4.3125 10.25 C3.89677734 9.71117187 3.48105469 9.17234375 3.05273438 8.6171875 C0.64459171 5.37469656 0 4.17310076 0 0 Z " fill="#C3B5BE" transform="translate(107,30)"/>
<path d="M0 0 C6.11755551 6.95176762 5.53806887 16.23546459 6 25 C5.67 25 5.34 25 5 25 C4.80664062 23.91460937 4.61328125 22.82921875 4.4140625 21.7109375 C4.15127083 20.26558332 3.88823714 18.82027312 3.625 17.375 C3.49867188 16.66214844 3.37234375 15.94929688 3.2421875 15.21484375 C2.46734164 10.99193381 1.37455697 7.07586022 0 3 C0 2.01 0 1.02 0 0 Z " fill="#B9A9B3" transform="translate(159,53)"/>
<path d="M0 0 C1.65 0 3.3 0 5 0 C5 2.31 5 4.62 5 7 C3.35 7 1.7 7 0 7 C0 4.69 0 2.38 0 0 Z " fill="#BFB0B9" transform="translate(92,61)"/>
<path d="M0 0 C1.65 0 3.3 0 5 0 C5 2.31 5 4.62 5 7 C3.35 7 1.7 7 0 7 C0 4.69 0 2.38 0 0 Z " fill="#BFB0B9" transform="translate(105,61)"/>
<path d="M0 0 C3.6875 0.3125 3.6875 0.3125 6.125 2.3125 C6.8984375 3.3025 6.8984375 3.3025 7.6875 4.3125 C3.6875 4.3125 -0.3125 4.3125 -4.3125 4.3125 C-4.3125 0.10290642 -4.23488606 0.39951755 0 0 Z " fill="#BD818C" transform="translate(142.3125,95.6875)"/>
<path d="M0 0 C2.0625 0.4375 2.0625 0.4375 4 1 C4.38922918 2.28745036 4.76098036 3.58019597 5.125 4.875 C5.33382812 5.59429687 5.54265625 6.31359375 5.7578125 7.0546875 C5.83773437 7.69664063 5.91765625 8.33859375 6 9 C5.34 9.66 4.68 10.32 4 11 C3.34 9.02 2.68 7.04 2 5 C1.34 5 0.68 5 0 5 C-0.5625 3.0625 -0.5625 3.0625 -1 1 C-0.67 0.67 -0.34 0.34 0 0 Z " fill="#B97985" transform="translate(49,96)"/>
<path d="M0 0 C1.65 0 3.3 0 5 0 C5 1.98 5 3.96 5 6 C3.35 6 1.7 6 0 6 C0 4.02 0 2.04 0 0 Z " fill="#BCACB6" transform="translate(137,78)"/>
<path d="M0 0 C1.65 0 3.3 0 5 0 C5 1.98 5 3.96 5 6 C3.35 6 1.7 6 0 6 C0 4.02 0 2.04 0 0 Z " fill="#BCADB6" transform="translate(72,78)"/>
<path d="M0 0 C1.65 0 3.3 0 5 0 C5 1.98 5 3.96 5 6 C3.35 6 1.7 6 0 6 C0 4.02 0 2.04 0 0 Z " fill="#BBABB5" transform="translate(92,51)"/>
<path d="M0 0 C1.65 0 3.3 0 5 0 C5 1.98 5 3.96 5 6 C3.35 6 1.7 6 0 6 C0 4.02 0 2.04 0 0 Z " fill="#BBABB5" transform="translate(105,51)"/>
<path d="M0 0 C1.62418745 -0.08090971 3.24951745 -0.13914995 4.875 -0.1875 C5.77992187 -0.22230469 6.68484375 -0.25710937 7.6171875 -0.29296875 C8.79667969 -0.14794922 8.79667969 -0.14794922 10 0 C12 3 12 3 11.625 5.6875 C11.41875 6.450625 11.2125 7.21375 11 8 C10.67 8 10.34 8 10 8 C10 6.35 10 4.7 10 3 C7.98177083 3.09765625 5.96354167 3.1953125 3.9453125 3.29296875 C3.30335937 3.19628906 2.66140625 3.09960938 2 3 C1.34 2.01 0.68 1.02 0 0 Z " fill="#C6939D" transform="translate(61,96)"/>
<path d="M0 0 C0.66 0 1.32 0 2 0 C2 4.29 2 8.58 2 13 C1.01 13 0.02 13 -1 13 C-0.67 8.71 -0.34 4.42 0 0 Z " fill="#E7E1E5" transform="translate(113,77)"/>
<path d="M0 0 C2.5654594 2.5654594 2.54046087 4.47686668 3 8 C1.35 8 -0.3 8 -2 8 C-1.125 2.25 -1.125 2.25 0 0 Z " fill="#EDDDE0" transform="translate(50,99)"/>
<path d="M0 0 C1.32 0 2.64 0 4 0 C3.67 3.63 3.34 7.26 3 11 C2.01 11.33 1.02 11.66 0 12 C0 8.04 0 4.08 0 0 Z " fill="#EFEBEE" transform="translate(83,79)"/>
<path d="M0 0 C1.5 1.25 1.5 1.25 3 3 C3 4.32 3 5.64 3 7 C2.01 7 1.02 7 0 7 C0 5.68 0 4.36 0 3 C-2.97 3 -5.94 3 -9 3 C-9 2.67 -9 2.34 -9 2 C-6.03 2 -3.06 2 0 2 C0 1.34 0 0.68 0 0 Z " fill="#C38D97" transform="translate(55,106)"/>
<path d="M0 0 C0 1.65 0 3.3 0 5 C-0.99 4.67 -1.98 4.34 -3 4 C-3.33 3.01 -3.66 2.02 -4 1 C-6.31 0.67 -8.62 0.34 -11 0 C-11 -0.33 -11 -0.66 -11 -1 C-3.57142857 -2.42857143 -3.57142857 -2.42857143 0 0 Z " fill="#C6929C" transform="translate(91,99)"/>
<path d="M0 0 C1.69141656 0.08963062 3.37959602 0.24577676 5.0625 0.4375 C6.44115234 0.59025391 6.44115234 0.59025391 7.84765625 0.74609375 C8.55792969 0.82988281 9.26820313 0.91367188 10 1 C10 1.33 10 1.66 10 2 C5.545 2.495 5.545 2.495 1 3 C0.67 5.64 0.34 8.28 0 11 C-0.33 11 -0.66 11 -1 11 C-1.02688151 9.35425434 -1.04634123 7.70838587 -1.0625 6.0625 C-1.07410156 5.14597656 -1.08570312 4.22945313 -1.09765625 3.28515625 C-1 1 -1 1 0 0 Z " fill="#C4B6BF" transform="translate(121,77)"/>
<path d="M0 0 C2.475 0.495 2.475 0.495 5 1 C4.67 1.66 4.34 2.32 4 3 C3.34 3 2.68 3 2 3 C2 3.66 2 4.32 2 5 C2.99 5.33 3.98 5.66 5 6 C4.34 6 3.68 6 3 6 C3 6.99 3 7.98 3 9 C2.34 9 1.68 9 1 9 C0.67 6.03 0.34 3.06 0 0 Z " fill="#CEC2C9" transform="translate(110,71)"/>
<path d="M0 0 C1.98 0 3.96 0 6 0 C5.67 1.65 5.34 3.3 5 5 C4.67 4.01 4.34 3.02 4 2 C3.01 2 2.02 2 1 2 C0.67 3.98 0.34 5.96 0 8 C-1.09658936 4.71023192 -0.79953138 3.28696233 0 0 Z " fill="#C0B1BA" transform="translate(72,64)"/>
<path d="M0 0 C0.99 0 1.98 0 3 0 C3 0.99 3 1.98 3 3 C2.34 3 1.68 3 1 3 C1 7.29 1 11.58 1 16 C0.67 16 0.34 16 0 16 C0 10.72 0 5.44 0 0 Z " fill="#AF6775" transform="translate(155,97)"/>
<path d="M0 0 C3.08089673 2.77280706 4.68775452 5.06326356 6 9 C5.34 9.66 4.68 10.32 4 11 C2.35 7.7 0.7 4.4 -1 1 C-0.67 0.67 -0.34 0.34 0 0 Z " fill="#C8BBC3" transform="translate(154,44)"/>
<path d="M0 0 C5.94 0.99 5.94 0.99 12 2 C8.1496895 4.56687367 6.41430237 3.83288724 2 3 C2 2.34 2 1.68 2 1 C1.34 0.67 0.68 0.34 0 0 Z " fill="#CEC3CA" transform="translate(114,20)"/>
<path d="M0 0 C0.66 0 1.32 0 2 0 C2 5.28 2 10.56 2 16 C1.67 16 1.34 16 1 16 C1 11.71 1 7.42 1 3 C0.34 3 -0.32 3 -1 3 C-0.67 2.01 -0.34 1.02 0 0 Z " fill="#A55464" transform="translate(169,97)"/>
<path d="M0 0 C0.99 0.33 1.98 0.66 3 1 C3.33 1.99 3.66 2.98 4 4 C3 5 3 5 0.93359375 5.09765625 C0.10988281 5.08605469 -0.71382813 5.07445313 -1.5625 5.0625 C-2.38878906 5.05347656 -3.21507813 5.04445313 -4.06640625 5.03515625 C-4.70449219 5.02355469 -5.34257813 5.01195313 -6 5 C-6 4.67 -6 4.34 -6 4 C-3.69 4 -1.38 4 1 4 C0.67 2.68 0.34 1.36 0 0 Z " fill="#D9D0D6" transform="translate(89,73)"/>
<path d="M0 0 C1.0326802 2.78823655 1.04509293 3.8677274 0.0625 6.75 C-0.288125 7.4925 -0.63875 8.235 -1 9 C-1.66 9 -2.32 9 -3 9 C-2.30058404 5.85262818 -1.23921302 2.97411124 0 0 Z " fill="#C18994" transform="translate(45,105)"/>
<path d="M0 0 C2.4375 1.1875 2.4375 1.1875 5 3 C5.8125 5.6875 5.8125 5.6875 6 8 C1.125 3.375 1.125 3.375 0 0 Z " fill="#ECE8EB" transform="translate(113,38)"/>
<path d="M0 0 C-3.28463659 2.18975773 -6.20696275 2.99806563 -10 4 C-10.33 3.34 -10.66 2.68 -11 2 C-7.36576791 -0.32590854 -4.22911669 -0.16265833 0 0 Z " fill="#C2B4BD" transform="translate(95,22)"/>
<path d="M0 0 C0.99 0 1.98 0 3 0 C1.92598892 2.91517292 1.22189824 4.77810176 -1 7 C-1.625 5.1875 -1.625 5.1875 -2 3 C-1.34 2.01 -0.68 1.02 0 0 Z " fill="#BF8691" transform="translate(105,96)"/>
<path d="M0 0 C0.66 0.66 1.32 1.32 2 2 C1.01 3.98 0.02 5.96 -1 8 C-1.66 7.67 -2.32 7.34 -3 7 C-1.125 1.125 -1.125 1.125 0 0 Z " fill="#CABDC5" transform="translate(57,47)"/>
<path d="M0 0 C0.66 0.66 1.32 1.32 2 2 C-0.64 3.65 -3.28 5.3 -6 7 C-4.11656068 3.23312136 -3.30867531 2.20578354 0 0 Z " fill="#D0C5CC" transform="translate(93,41)"/>
</svg>
